<svg width="232" height="111" viewBox="0 0 232 111" fill="none" xmlns="http://www.w3.org/2000/svg">
<path fill-rule="evenodd" clip-rule="evenodd" d="M106 0C102.686 0 100 2.68629 100 6V104.09C100 107.403 102.686 110.09 106 110.09C109.314 110.09 112 107.403 112 104.09V6C112 2.68629 109.314 0 106 0ZM86 8C82.6863 8 80 10.6863 80 14V96.0896C80 99.4033 82.6863 102.09 86 102.09C89.3137 102.09 92 99.4033 92 96.0896V14C92 10.6863 89.3137 8 86 8ZM60 22C60 18.6863 62.6863 16 66 16C69.3137 16 72 18.6863 72 22V88.0896C72 91.4033 69.3137 94.0896 66 94.0896C62.6863 94.0896 60 91.4033 60 88.0896V22ZM46 24C42.6863 24 40 26.6863 40 30V80.0896C40 83.4033 42.6863 86.0896 46 86.0896C49.3137 86.0896 52 83.4033 52 80.0896V30C52 26.6863 49.3137 24 46 24ZM20 38C20 34.6863 22.6863 32 26 32C29.3137 32 32 34.6863 32 38V72.0896C32 75.4033 29.3137 78.0896 26 78.0896C22.6863 78.0896 20 75.4033 20 72.0896V38ZM6 40C2.68629 40 0 42.6863 0 46V64.0896C0 67.4033 2.68629 70.0896 6 70.0896C9.31371 70.0896 12 67.4033 12 64.0895V46C12 42.6863 9.31371 40 6 40ZM132 6C132 2.68629 129.314 0 126 0C122.686 0 120 2.68629 120 6V104.09C120 107.403 122.686 110.09 126 110.09C129.314 110.09 132 107.403 132 104.09V6ZM146 8C149.314 8 152 10.6863 152 14V96.0896C152 99.4033 149.314 102.09 146 102.09C142.686 102.09 140 99.4033 140 96.0896V14C140 10.6863 142.686 8 146 8ZM172 22C172 18.6863 169.314 16 166 16C162.686 16 160 18.6863 160 22V88.0896C160 91.4033 162.686 94.0896 166 94.0896C169.314 94.0896 172 91.4033 172 88.0896V22ZM186 24C189.314 24 192 26.6863 192 30V80.0896C192 83.4033 189.314 86.0896 186 86.0896C182.686 86.0896 180 83.4033 180 80.0896V30C180 26.6863 182.686 24 186 24ZM212 38C212 34.6863 209.314 32 206 32C202.686 32 200 34.6863 200 38V72.0896C200 75.4033 202.686 78.0896 206 78.0896C209.314 78.0896 212 75.4033 212 72.0896V38ZM226 40C229.314 40 232 42.6863 232 46V64.0896C232 67.4033 229.314 70.0896 226 70.0896C222.686 70.0896 220 67.4033 220 64.0895V46C220 42.6863 222.686 40 226 40Z" fill="#1F261F"/>
</svg>
