<svg xmlns="http://www.w3.org/2000/svg" width="635.95" height="687.67" viewBox="0 0 635.95 687.67">
  <title>Asset 1</title>
  <style>
    path {
      fill: black;
    }
    @media (prefers-color-scheme: dark) {
      path {
        fill: white;
      }
    }
  </style>
  <g id="Layer_2" data-name="Layer 2">
    <g id="Layer_1-2" data-name="Layer 1">
      <path d="M317.9,687.67a61.48,61.48,0,0,0,29.65-7.54L554,565.87a159,159,0,0,0,0-278.18L329.49,163.44a24.25,24.25,0,0,0-11.57-3,23.64,23.64,0,0,0-11.46,3l-141.7,78.43c-6.42,3.56-11.56,9.78-11.56,18.88,0,9.3,5.39,15.75,11.57,19.17L424.53,423.71a3.35,3.35,0,0,1,.47,5.59L319.72,487.87a3.15,3.15,0,0,1-3.48,0L99.69,368a122.45,122.45,0,0,1,0-214.25L293.49,46.5a49.83,49.83,0,0,1,49,0L633.6,207.65V165.89L347.55,7.54a61.77,61.77,0,0,0-59.15,0L82,121.8A159,159,0,0,0,82,400L306.46,524.24a24.36,24.36,0,0,0,11.57,3,23.77,23.77,0,0,0,11.46-3l141.7-78.42c6.43-3.56,11.57-9.78,11.57-18.88a21.6,21.6,0,0,0-11.57-19.18L211.42,264a3.45,3.45,0,0,1-1.88-3,3.33,3.33,0,0,1,1.47-2.82L316.24,199.8a3.27,3.27,0,0,1,1.66-.51,3.65,3.65,0,0,1,1.82.51L536.26,319.67a122.43,122.43,0,0,1,0,214.23L342.46,641.17a49.83,49.83,0,0,1-49,0L2.35,480.08v41.75l286,158.3A60.86,60.86,0,0,0,317.9,687.67Z"/>
    </g>
  </g>
</svg>